ply
format ascii 1.0
comment VTK generated PLY File
obj_info vtkPolyData points and polygons: vtk4.0
element vertex 480
property float x
property float y
property float z
element face 512
property list uchar int vertex_indices
end_header
-0.5 0.5 -0.25001874566078186 
-0.59567803144454956 0.5 -0.23098720610141754 
-0.67678993940353394 0.5 -0.17678995430469513 
-0.67678993940353394 0.5 -0.17678995430469513 
-0.73098719120025635 0.5 -0.095678031444549561 
-0.75001877546310425 0.5 1.5309233784004822e-17 
-0.75001877546310425 0.5 1.5309233784004822e-17 
-0.73098719120025635 0.5 0.095678031444549561 
-0.67678993940353394 0.5 0.17678995430469513 
-0.67678993940353394 0.5 0.17678995430469513 
-0.59567803144454956 0.5 0.23098720610141754 
-0.5 0.5 0.25001874566078186 
-0.5 0.5 0.25001874566078186 
-0.40432196855545044 0.5 0.23098720610141754 
-0.32321006059646606 0.5 0.17678995430469513 
-0.32321006059646606 0.5 0.17678995430469513 
-0.26901277899742126 0.5 0.095678031444549561 
-0.24998125433921814 0.5 1.5309233784004822e-17 
-0.24998125433921814 0.5 1.5309233784004822e-17 
-0.26901277899742126 0.5 -0.095678031444549561 
-0.32321006059646606 0.5 -0.17678995430469513 
-0.32321006059646606 0.5 -0.17678995430469513 
-0.40432196855545044 0.5 -0.23098720610141754 
-0.5 0.5 -0.25001874566078186 
-0.5 0.45216816663742065 -0.2595331072807312 
-0.59931904077529907 0.45216816663742065 -0.23977731168270111 
-0.68351763486862183 0.45216816663742065 -0.18351760506629944 
-0.68351763486862183 0.45216816663742065 -0.18351760506629944 
-0.7397773265838623 0.45216816663742065 -0.099319018423557281 
-0.7595331072807312 0.45216816663742065 1.5891818743787144e-17 
-0.7595331072807312 0.45216816663742065 1.5891818743787144e-17 
-0.7397773265838623 0.45216816663742065 0.099319018423557281 
-0.68351763486862183 0.45216816663742065 0.18351760506629944 
-0.68351763486862183 0.45216816663742065 0.18351760506629944 
-0.59931904077529907 0.45216816663742065 0.23977731168270111 
-0.5 0.45216816663742065 0.2595331072807312 
-0.5 0.45216816663742065 0.2595331072807312 
-0.40068098902702332 0.45216816663742065 0.23977731168270111 
-0.31648239493370056 0.45216816663742065 0.18351760506629944 
-0.31648239493370056 0.45216816663742065 0.18351760506629944 
-0.2602226734161377 0.45216816663742065 0.099319018423557281 
-0.24046690762042999 0.45216816663742065 1.5891818743787144e-17 
-0.24046690762042999 0.45216816663742065 1.5891818743787144e-17 
-0.2602226734161377 0.45216816663742065 -0.099319018423557281 
-0.31648239493370056 0.45216816663742065 -0.18351760506629944 
-0.31648239493370056 0.45216816663742065 -0.18351760506629944 
-0.40068098902702332 0.45216816663742065 -0.23977731168270111 
-0.5 0.45216816663742065 -0.2595331072807312 
-0.5 0.41161829233169556 -0.28662765026092529 
-0.60968762636184692 0.41161829233169556 -0.26480942964553833 
-0.70267635583877563 0.41161829233169556 -0.20267635583877563 
-0.70267635583877563 0.41161829233169556 -0.20267635583877563 
-0.76480942964553833 0.41161829233169556 -0.10968765616416931 
-0.78662765026092529 0.41161829233169556 1.7550881663494951e-17 
-0.78662765026092529 0.41161829233169556 1.7550881663494951e-17 
-0.76480942964553833 0.41161829233169556 0.10968765616416931 
-0.70267635583877563 0.41161829233169556 0.20267635583877563 
-0.70267635583877563 0.41161829233169556 0.20267635583877563 
-0.60968762636184692 0.41161829233169556 0.26480942964553833 
-0.5 0.41161829233169556 0.28662765026092529 
-0.5 0.41161829233169556 0.28662765026092529 
-0.39031234383583069 0.41161829233169556 0.26480942964553833 
-0.29732364416122437 0.41161829233169556 0.20267635583877563 
-0.29732364416122437 0.41161829233169556 0.20267635583877563 
-0.23519057035446167 0.41161829233169556 0.10968765616416931 
-0.21337234973907471 0.41161829233169556 1.7550881663494951e-17 
-0.21337234973907471 0.41161829233169556 1.7550881663494951e-17 
-0.23519057035446167 0.41161829233169556 -0.10968765616416931 
-0.29732364416122437 0.41161829233169556 -0.20267635583877563 
-0.29732364416122437 0.41161829233169556 -0.20267635583877563 
-0.39031234383583069 0.41161829233169556 -0.26480942964553833 
-0.5 0.41161829233169556 -0.28662765026092529 
-0.5 0.38452371954917908 -0.32717752456665039 
-0.625205397605896 0.38452371954917908 -0.30227261781692505 
-0.73134946823120117 0.38452371954917908 -0.23134945333003998 
-0.73134946823120117 0.38452371954917908 -0.23134945333003998 
-0.80227261781692505 0.38452371954917908 -0.12520542740821838 
-0.82717752456665039 0.38452371954917908 2.0033846251807625e-17 
-0.82717752456665039 0.38452371954917908 2.0033846251807625e-17 
-0.80227261781692505 0.38452371954917908 0.12520542740821838 
-0.73134946823120117 0.38452371954917908 0.23134945333003998 
-0.73134946823120117 0.38452371954917908 0.23134945333003998 
-0.625205397605896 0.38452371954917908 0.30227261781692505 
-0.5 0.38452371954917908 0.32717752456665039 
-0.5 0.38452371954917908 0.32717752456665039 
-0.37479457259178162 0.38452371954917908 0.30227261781692505 
-0.26865056157112122 0.38452371954917908 0.23134945333003998 
-0.26865056157112122 0.38452371954917908 0.23134945333003998 
-0.19772736728191376 0.38452371954917908 0.12520542740821838 
-0.17282246053218842 0.38452371954917908 2.0033846251807625e-17 
-0.17282246053218842 0.38452371954917908 2.0033846251807625e-17 
-0.19772736728191376 0.38452371954917908 -0.12520542740821838 
-0.26865056157112122 0.38452371954917908 -0.23134945333003998 
-0.26865056157112122 0.38452371954917908 -0.23134945333003998 
-0.37479457259178162 0.38452371954917908 -0.30227261781692505 
-0.5 0.38452371954917908 -0.32717752456665039 
-0.5 0.37500938773155212 -0.37500938773155212 
-0.64350986480712891 0.37500938773155212 -0.34646347165107727 
-0.76517164707183838 0.37500938773155212 -0.26517167687416077 
-0.76517164707183838 0.37500938773155212 -0.26517167687416077 
-0.84646350145339966 0.37500938773155212 -0.1435098797082901 
-0.87500935792922974 0.37500938773155212 2.2962700894955784e-17 
-0.87500935792922974 0.37500938773155212 2.2962700894955784e-17 
-0.84646350145339966 0.37500938773155212 0.1435098797082901 
-0.76517164707183838 0.37500938773155212 0.26517167687416077 
-0.76517164707183838 0.37500938773155212 0.26517167687416077 
-0.64350986480712891 0.37500938773155212 0.34646347165107727 
-0.5 0.37500938773155212 0.37500938773155212 
-0.5 0.37500938773155212 0.37500938773155212 
-0.35649013519287109 0.37500938773155212 0.34646347165107727 
-0.23482832312583923 0.37500938773155212 0.26517167687416077 
-0.23482832312583923 0.37500938773155212 0.26517167687416077 
-0.15353651344776154 0.37500938773155212 0.1435098797082901 
-0.12499062716960907 0.37500938773155212 2.2962700894955784e-17 
-0.12499062716960907 0.37500938773155212 2.2962700894955784e-17 
-0.15353651344776154 0.37500938773155212 -0.1435098797082901 
-0.23482832312583923 0.37500938773155212 -0.26517167687416077 
-0.23482832312583923 0.37500938773155212 -0.26517167687416077 
-0.35649013519287109 0.37500938773155212 -0.34646347165107727 
-0.5 0.37500938773155212 -0.37500938773155212 
-0.5 0.37500938773155212 -0.37500938773155212 
-0.64350986480712891 0.37500938773155212 -0.34646347165107727 
-0.76517164707183838 0.37500938773155212 -0.26517167687416077 
-0.76517164707183838 0.37500938773155212 -0.26517167687416077 
-0.84646350145339966 0.37500938773155212 -0.1435098797082901 
-0.87500935792922974 0.37500938773155212 2.2962700894955784e-17 
-0.87500935792922974 0.37500938773155212 2.2962700894955784e-17 
-0.84646350145339966 0.37500938773155212 0.1435098797082901 
-0.76517164707183838 0.37500938773155212 0.26517167687416077 
-0.76517164707183838 0.37500938773155212 0.26517167687416077 
-0.64350986480712891 0.37500938773155212 0.34646347165107727 
-0.5 0.37500938773155212 0.37500938773155212 
-0.5 0.37500938773155212 0.37500938773155212 
-0.35649013519287109 0.37500938773155212 0.34646347165107727 
-0.23482832312583923 0.37500938773155212 0.26517167687416077 
-0.23482832312583923 0.37500938773155212 0.26517167687416077 
-0.15353651344776154 0.37500938773155212 0.1435098797082901 
-0.12499062716960907 0.37500938773155212 2.2962700894955784e-17 
-0.12499062716960907 0.37500938773155212 2.2962700894955784e-17 
-0.15353651344776154 0.37500938773155212 -0.1435098797082901 
-0.23482832312583923 0.37500938773155212 -0.26517167687416077 
-0.23482832312583923 0.37500938773155212 -0.26517167687416077 
-0.35649013519287109 0.37500938773155212 -0.34646347165107727 
-0.5 0.37500938773155212 -0.37500938773155212 
-0.5 0.38452371954917908 -0.42284122109413147 
-0.66181433200836182 0.38452371954917908 -0.39065435528755188 
-0.79899388551712036 0.38452371954917908 -0.29899388551712036 
-0.79899388551712036 0.38452371954917908 -0.29899388551712036 
-0.89065432548522949 0.38452371954917908 -0.16181433200836182 
-0.92284119129180908 0.38452371954917908 2.5891557192465168e-17 
-0.92284119129180908 0.38452371954917908 2.5891557192465168e-17 
-0.89065432548522949 0.38452371954917908 0.16181433200836182 
-0.79899388551712036 0.38452371954917908 0.29899388551712036 
-0.79899388551712036 0.38452371954917908 0.29899388551712036 
-0.66181433200836182 0.38452371954917908 0.39065435528755188 
-0.5 0.38452371954917908 0.42284122109413147 
-0.5 0.38452371954917908 0.42284122109413147 
-0.33818566799163818 0.38452371954917908 0.39065435528755188 
-0.20100611448287964 0.38452371954917908 0.29899388551712036 
-0.20100611448287964 0.38452371954917908 0.29899388551712036 
-0.10934565216302872 0.38452371954917908 0.16181433200836182 
-0.077158786356449127 0.38452371954917908 2.5891557192465168e-17 
-0.077158786356449127 0.38452371954917908 2.5891557192465168e-17 
-0.10934565216302872 0.38452371954917908 -0.16181433200836182 
-0.20100611448287964 0.38452371954917908 -0.29899388551712036 
-0.20100611448287964 0.38452371954917908 -0.29899388551712036 
-0.33818566799163818 0.38452371954917908 -0.39065435528755188 
-0.5 0.38452371954917908 -0.42284122109413147 
-0.5 0.41161829233169556 -0.46339109539985657 
-0.67733210325241089 0.41161829233169556 -0.4281175434589386 
-0.8276669979095459 0.41161829233169556 -0.3276669979095459 
-0.8276669979095459 0.41161829233169556 -0.3276669979095459 
-0.92811757326126099 0.41161829233169556 -0.17733208835124969 
-0.96339106559753418 0.41161829233169556 2.8374521780777842e-17 
-0.96339106559753418 0.41161829233169556 2.8374521780777842e-17 
-0.92811757326126099 0.41161829233169556 0.17733208835124969 
-0.8276669979095459 0.41161829233169556 0.3276669979095459 
-0.8276669979095459 0.41161829233169556 0.3276669979095459 
-0.67733210325241089 0.41161829233169556 0.4281175434589386 
-0.5 0.41161829233169556 0.46339109539985657 
-0.5 0.41161829233169556 0.46339109539985657 
-0.32266789674758911 0.41161829233169556 0.4281175434589386 
-0.1723330169916153 0.41161829233169556 0.3276669979095459 
-0.1723330169916153 0.41161829233169556 0.3276669979095459 
-0.071882456541061401 0.41161829233169556 0.17733208835124969 
-0.036608904600143433 0.41161829233169556 2.8374521780777842e-17 
-0.036608904600143433 0.41161829233169556 2.8374521780777842e-17 
-0.071882456541061401 0.41161829233169556 -0.17733208835124969 
-0.1723330169916153 0.41161829233169556 -0.3276669979095459 
-0.1723330169916153 0.41161829233169556 -0.3276669979095459 
-0.32266789674758911 0.41161829233169556 -0.4281175434589386 
-0.5 0.41161829233169556 -0.46339109539985657 
-0.5 0.45216816663742065 -0.49048566818237305 
-0.68770074844360352 0.45216816663742065 -0.45314964652061462 
-0.84682571887969971 0.45216816663742065 -0.34682571887969971 
-0.84682571887969971 0.45216816663742065 -0.34682571887969971 
-0.95314967632293701 0.45216816663742065 -0.18770073354244232 
-0.99048566818237305 0.45216816663742065 3.0033584700485649e-17 
-0.99048566818237305 0.45216816663742065 3.0033584700485649e-17 
-0.95314967632293701 0.45216816663742065 0.18770073354244232 
-0.84682571887969971 0.45216816663742065 0.34682571887969971 
-0.84682571887969971 0.45216816663742065 0.34682571887969971 
-0.68770074844360352 0.45216816663742065 0.45314964652061462 
-0.5 0.45216816663742065 0.49048566818237305 
-0.5 0.45216816663742065 0.49048566818237305 
-0.31229925155639648 0.45216816663742065 0.45314964652061462 
-0.1531742662191391 0.45216816663742065 0.34682571887969971 
-0.1531742662191391 0.45216816663742065 0.34682571887969971 
-0.046850342303514481 0.45216816663742065 0.18770073354244232 
-0.0095143448561429977 0.45216816663742065 3.0033584700485649e-17 
-0.0095143448561429977 0.45216816663742065 3.0033584700485649e-17 
-0.046850342303514481 0.45216816663742065 -0.18770073354244232 
-0.1531742662191391 0.45216816663742065 -0.34682571887969971 
-0.1531742662191391 0.45216816663742065 -0.34682571887969971 
-0.31229925155639648 0.45216816663742065 -0.45314964652061462 
-0.5 0.45216816663742065 -0.49048566818237305 
-0.5 0.5 -0.5 
-0.69134169816970825 0.5 -0.46193975210189819 
-0.8535534143447876 0.5 -0.35355338454246521 
-0.8535534143447876 0.5 -0.35355338454246521 
-0.96193975210189819 0.5 -0.19134171307086945 
-1 0.5 3.0616171314629196e-17 
-1 0.5 3.0616171314629196e-17 
-0.96193975210189819 0.5 0.19134171307086945 
-0.8535534143447876 0.5 0.35355338454246521 
-0.8535534143447876 0.5 0.35355338454246521 
-0.69134169816970825 0.5 0.46193975210189819 
-0.5 0.5 0.5 
-0.5 0.5 0.5 
-0.30865827202796936 0.5 0.46193975210189819 
-0.14644661545753479 0.5 0.35355338454246521 
-0.14644661545753479 0.5 0.35355338454246521 
-0.038060232996940613 0.5 0.19134171307086945 
0 0.5 3.0616171314629196e-17 
0 0.5 3.0616171314629196e-17 
-0.038060232996940613 0.5 -0.19134171307086945 
-0.14644661545753479 0.5 -0.35355338454246521 
-0.14644661545753479 0.5 -0.35355338454246521 
-0.30865827202796936 0.5 -0.46193975210189819 
-0.5 0.5 -0.5 
-0.5 0.5 -0.5 
-0.69134169816970825 0.5 -0.46193975210189819 
-0.8535534143447876 0.5 -0.35355338454246521 
-0.8535534143447876 0.5 -0.35355338454246521 
-0.96193975210189819 0.5 -0.19134171307086945 
-1 0.5 3.0616171314629196e-17 
-1 0.5 3.0616171314629196e-17 
-0.96193975210189819 0.5 0.19134171307086945 
-0.8535534143447876 0.5 0.35355338454246521 
-0.8535534143447876 0.5 0.35355338454246521 
-0.69134169816970825 0.5 0.46193975210189819 
-0.5 0.5 0.5 
-0.5 0.5 0.5 
-0.30865827202796936 0.5 0.46193975210189819 
-0.14644661545753479 0.5 0.35355338454246521 
-0.14644661545753479 0.5 0.35355338454246521 
-0.038060232996940613 0.5 0.19134171307086945 
0 0.5 3.0616171314629196e-17 
0 0.5 3.0616171314629196e-17 
-0.038060232996940613 0.5 -0.19134171307086945 
-0.14644661545753479 0.5 -0.35355338454246521 
-0.14644661545753479 0.5 -0.35355338454246521 
-0.30865827202796936 0.5 -0.46193975210189819 
-0.5 0.5 -0.5 
-0.5 0.54783183336257935 -0.49048566818237305 
-0.68770074844360352 0.54783183336257935 -0.45314964652061462 
-0.84682571887969971 0.54783183336257935 -0.34682571887969971 
-0.84682571887969971 0.54783183336257935 -0.34682571887969971 
-0.95314967632293701 0.54783183336257935 -0.18770073354244232 
-0.99048566818237305 0.54783183336257935 3.0033584700485649e-17 
-0.99048566818237305 0.54783183336257935 3.0033584700485649e-17 
-0.95314967632293701 0.54783183336257935 0.18770073354244232 
-0.84682571887969971 0.54783183336257935 0.34682571887969971 
-0.84682571887969971 0.54783183336257935 0.34682571887969971 
-0.68770074844360352 0.54783183336257935 0.45314964652061462 
-0.5 0.54783183336257935 0.49048566818237305 
-0.5 0.54783183336257935 0.49048566818237305 
-0.31229925155639648 0.54783183336257935 0.45314964652061462 
-0.1531742662191391 0.54783183336257935 0.34682571887969971 
-0.1531742662191391 0.54783183336257935 0.34682571887969971 
-0.046850342303514481 0.54783183336257935 0.18770073354244232 
-0.0095143448561429977 0.54783183336257935 3.0033584700485649e-17 
-0.0095143448561429977 0.54783183336257935 3.0033584700485649e-17 
-0.046850342303514481 0.54783183336257935 -0.18770073354244232 
-0.1531742662191391 0.54783183336257935 -0.34682571887969971 
-0.1531742662191391 0.54783183336257935 -0.34682571887969971 
-0.31229925155639648 0.54783183336257935 -0.45314964652061462 
-0.5 0.54783183336257935 -0.49048566818237305 
-0.5 0.58838170766830444 -0.46339109539985657 
-0.67733210325241089 0.58838170766830444 -0.4281175434589386 
-0.8276669979095459 0.58838170766830444 -0.3276669979095459 
-0.8276669979095459 0.58838170766830444 -0.3276669979095459 
-0.92811757326126099 0.58838170766830444 -0.17733208835124969 
-0.96339106559753418 0.58838170766830444 2.8374521780777842e-17 
-0.96339106559753418 0.58838170766830444 2.8374521780777842e-17 
-0.92811757326126099 0.58838170766830444 0.17733208835124969 
-0.8276669979095459 0.58838170766830444 0.3276669979095459 
-0.8276669979095459 0.58838170766830444 0.3276669979095459 
-0.67733210325241089 0.58838170766830444 0.4281175434589386 
-0.5 0.58838170766830444 0.46339109539985657 
-0.5 0.58838170766830444 0.46339109539985657 
-0.32266789674758911 0.58838170766830444 0.4281175434589386 
-0.1723330169916153 0.58838170766830444 0.3276669979095459 
-0.1723330169916153 0.58838170766830444 0.3276669979095459 
-0.071882456541061401 0.58838170766830444 0.17733208835124969 
-0.036608904600143433 0.58838170766830444 2.8374521780777842e-17 
-0.036608904600143433 0.58838170766830444 2.8374521780777842e-17 
-0.071882456541061401 0.58838170766830444 -0.17733208835124969 
-0.1723330169916153 0.58838170766830444 -0.3276669979095459 
-0.1723330169916153 0.58838170766830444 -0.3276669979095459 
-0.32266789674758911 0.58838170766830444 -0.4281175434589386 
-0.5 0.58838170766830444 -0.46339109539985657 
-0.5 0.61547625064849854 -0.42284122109413147 
-0.66181433200836182 0.61547625064849854 -0.39065435528755188 
-0.79899388551712036 0.61547625064849854 -0.29899388551712036 
-0.79899388551712036 0.61547625064849854 -0.29899388551712036 
-0.89065432548522949 0.61547625064849854 -0.16181433200836182 
-0.92284119129180908 0.61547625064849854 2.5891557192465168e-17 
-0.92284119129180908 0.61547625064849854 2.5891557192465168e-17 
-0.89065432548522949 0.61547625064849854 0.16181433200836182 
-0.79899388551712036 0.61547625064849854 0.29899388551712036 
-0.79899388551712036 0.61547625064849854 0.29899388551712036 
-0.66181433200836182 0.61547625064849854 0.39065435528755188 
-0.5 0.61547625064849854 0.42284122109413147 
-0.5 0.61547625064849854 0.42284122109413147 
-0.33818566799163818 0.61547625064849854 0.39065435528755188 
-0.20100611448287964 0.61547625064849854 0.29899388551712036 
-0.20100611448287964 0.61547625064849854 0.29899388551712036 
-0.10934565216302872 0.61547625064849854 0.16181433200836182 
-0.077158786356449127 0.61547625064849854 2.5891557192465168e-17 
-0.077158786356449127 0.61547625064849854 2.5891557192465168e-17 
-0.10934565216302872 0.61547625064849854 -0.16181433200836182 
-0.20100611448287964 0.61547625064849854 -0.29899388551712036 
-0.20100611448287964 0.61547625064849854 -0.29899388551712036 
-0.33818566799163818 0.61547625064849854 -0.39065435528755188 
-0.5 0.61547625064849854 -0.42284122109413147 
-0.5 0.62499064207077026 -0.37500938773155212 
-0.64350986480712891 0.62499064207077026 -0.34646347165107727 
-0.76517164707183838 0.62499064207077026 -0.26517167687416077 
-0.76517164707183838 0.62499064207077026 -0.26517167687416077 
-0.84646350145339966 0.62499064207077026 -0.1435098797082901 
-0.87500935792922974 0.62499064207077026 2.2962700894955784e-17 
-0.87500935792922974 0.62499064207077026 2.2962700894955784e-17 
-0.84646350145339966 0.62499064207077026 0.1435098797082901 
-0.76517164707183838 0.62499064207077026 0.26517167687416077 
-0.76517164707183838 0.62499064207077026 0.26517167687416077 
-0.64350986480712891 0.62499064207077026 0.34646347165107727 
-0.5 0.62499064207077026 0.37500938773155212 
-0.5 0.62499064207077026 0.37500938773155212 
-0.35649013519287109 0.62499064207077026 0.34646347165107727 
-0.23482832312583923 0.62499064207077026 0.26517167687416077 
-0.23482832312583923 0.62499064207077026 0.26517167687416077 
-0.15353651344776154 0.62499064207077026 0.1435098797082901 
-0.12499062716960907 0.62499064207077026 2.2962700894955784e-17 
-0.12499062716960907 0.62499064207077026 2.2962700894955784e-17 
-0.15353651344776154 0.62499064207077026 -0.1435098797082901 
-0.23482832312583923 0.62499064207077026 -0.26517167687416077 
-0.23482832312583923 0.62499064207077026 -0.26517167687416077 
-0.35649013519287109 0.62499064207077026 -0.34646347165107727 
-0.5 0.62499064207077026 -0.37500938773155212 
-0.5 0.62499064207077026 -0.37500938773155212 
-0.64350986480712891 0.62499064207077026 -0.34646347165107727 
-0.76517164707183838 0.62499064207077026 -0.26517167687416077 
-0.76517164707183838 0.62499064207077026 -0.26517167687416077 
-0.84646350145339966 0.62499064207077026 -0.1435098797082901 
-0.87500935792922974 0.62499064207077026 2.2962700894955784e-17 
-0.87500935792922974 0.62499064207077026 2.2962700894955784e-17 
-0.84646350145339966 0.62499064207077026 0.1435098797082901 
-0.76517164707183838 0.62499064207077026 0.26517167687416077 
-0.76517164707183838 0.62499064207077026 0.26517167687416077 
-0.64350986480712891 0.62499064207077026 0.34646347165107727 
-0.5 0.62499064207077026 0.37500938773155212 
-0.5 0.62499064207077026 0.37500938773155212 
-0.35649013519287109 0.62499064207077026 0.34646347165107727 
-0.23482832312583923 0.62499064207077026 0.26517167687416077 
-0.23482832312583923 0.62499064207077026 0.26517167687416077 
-0.15353651344776154 0.62499064207077026 0.1435098797082901 
-0.12499062716960907 0.62499064207077026 2.2962700894955784e-17 
-0.12499062716960907 0.62499064207077026 2.2962700894955784e-17 
-0.15353651344776154 0.62499064207077026 -0.1435098797082901 
-0.23482832312583923 0.62499064207077026 -0.26517167687416077 
-0.23482832312583923 0.62499064207077026 -0.26517167687416077 
-0.35649013519287109 0.62499064207077026 -0.34646347165107727 
-0.5 0.62499064207077026 -0.37500938773155212 
-0.5 0.61547625064849854 -0.32717752456665039 
-0.625205397605896 0.61547625064849854 -0.30227261781692505 
-0.73134946823120117 0.61547625064849854 -0.23134945333003998 
-0.73134946823120117 0.61547625064849854 -0.23134945333003998 
-0.80227261781692505 0.61547625064849854 -0.12520542740821838 
-0.82717752456665039 0.61547625064849854 2.0033846251807625e-17 
-0.82717752456665039 0.61547625064849854 2.0033846251807625e-17 
-0.80227261781692505 0.61547625064849854 0.12520542740821838 
-0.73134946823120117 0.61547625064849854 0.23134945333003998 
-0.73134946823120117 0.61547625064849854 0.23134945333003998 
-0.625205397605896 0.61547625064849854 0.30227261781692505 
-0.5 0.61547625064849854 0.32717752456665039 
-0.5 0.61547625064849854 0.32717752456665039 
-0.37479457259178162 0.61547625064849854 0.30227261781692505 
-0.26865056157112122 0.61547625064849854 0.23134945333003998 
-0.26865056157112122 0.61547625064849854 0.23134945333003998 
-0.19772736728191376 0.61547625064849854 0.12520542740821838 
-0.17282246053218842 0.61547625064849854 2.0033846251807625e-17 
-0.17282246053218842 0.61547625064849854 2.0033846251807625e-17 
-0.19772736728191376 0.61547625064849854 -0.12520542740821838 
-0.26865056157112122 0.61547625064849854 -0.23134945333003998 
-0.26865056157112122 0.61547625064849854 -0.23134945333003998 
-0.37479457259178162 0.61547625064849854 -0.30227261781692505 
-0.5 0.61547625064849854 -0.32717752456665039 
-0.5 0.58838170766830444 -0.28662765026092529 
-0.60968762636184692 0.58838170766830444 -0.26480942964553833 
-0.70267635583877563 0.58838170766830444 -0.20267635583877563 
-0.70267635583877563 0.58838170766830444 -0.20267635583877563 
-0.76480942964553833 0.58838170766830444 -0.10968765616416931 
-0.78662765026092529 0.58838170766830444 1.7550881663494951e-17 
-0.78662765026092529 0.58838170766830444 1.7550881663494951e-17 
-0.76480942964553833 0.58838170766830444 0.10968765616416931 
-0.70267635583877563 0.58838170766830444 0.20267635583877563 
-0.70267635583877563 0.58838170766830444 0.20267635583877563 
-0.60968762636184692 0.58838170766830444 0.26480942964553833 
-0.5 0.58838170766830444 0.28662765026092529 
-0.5 0.58838170766830444 0.28662765026092529 
-0.39031234383583069 0.58838170766830444 0.26480942964553833 
-0.29732364416122437 0.58838170766830444 0.20267635583877563 
-0.29732364416122437 0.58838170766830444 0.20267635583877563 
-0.23519057035446167 0.58838170766830444 0.10968765616416931 
-0.21337234973907471 0.58838170766830444 1.7550881663494951e-17 
-0.21337234973907471 0.58838170766830444 1.7550881663494951e-17 
-0.23519057035446167 0.58838170766830444 -0.10968765616416931 
-0.29732364416122437 0.58838170766830444 -0.20267635583877563 
-0.29732364416122437 0.58838170766830444 -0.20267635583877563 
-0.39031234383583069 0.58838170766830444 -0.26480942964553833 
-0.5 0.58838170766830444 -0.28662765026092529 
-0.5 0.54783183336257935 -0.2595331072807312 
-0.59931904077529907 0.54783183336257935 -0.23977731168270111 
-0.68351763486862183 0.54783183336257935 -0.18351760506629944 
-0.68351763486862183 0.54783183336257935 -0.18351760506629944 
-0.7397773265838623 0.54783183336257935 -0.099319018423557281 
-0.7595331072807312 0.54783183336257935 1.5891818743787144e-17 
-0.7595331072807312 0.54783183336257935 1.5891818743787144e-17 
-0.7397773265838623 0.54783183336257935 0.099319018423557281 
-0.68351763486862183 0.54783183336257935 0.18351760506629944 
-0.68351763486862183 0.54783183336257935 0.18351760506629944 
-0.59931904077529907 0.54783183336257935 0.23977731168270111 
-0.5 0.54783183336257935 0.2595331072807312 
-0.5 0.54783183336257935 0.2595331072807312 
-0.40068098902702332 0.54783183336257935 0.23977731168270111 
-0.31648239493370056 0.54783183336257935 0.18351760506629944 
-0.31648239493370056 0.54783183336257935 0.18351760506629944 
-0.2602226734161377 0.54783183336257935 0.099319018423557281 
-0.24046690762042999 0.54783183336257935 1.5891818743787144e-17 
-0.24046690762042999 0.54783183336257935 1.5891818743787144e-17 
-0.2602226734161377 0.54783183336257935 -0.099319018423557281 
-0.31648239493370056 0.54783183336257935 -0.18351760506629944 
-0.31648239493370056 0.54783183336257935 -0.18351760506629944 
-0.40068098902702332 0.54783183336257935 -0.23977731168270111 
-0.5 0.54783183336257935 -0.2595331072807312 
-0.5 0.5 -0.25001874566078186 
-0.59567803144454956 0.5 -0.23098720610141754 
-0.67678993940353394 0.5 -0.17678995430469513 
-0.67678993940353394 0.5 -0.17678995430469513 
-0.73098719120025635 0.5 -0.095678031444549561 
-0.75001877546310425 0.5 1.5309233784004822e-17 
-0.75001877546310425 0.5 1.5309233784004822e-17 
-0.73098719120025635 0.5 0.095678031444549561 
-0.67678993940353394 0.5 0.17678995430469513 
-0.67678993940353394 0.5 0.17678995430469513 
-0.59567803144454956 0.5 0.23098720610141754 
-0.5 0.5 0.25001874566078186 
-0.5 0.5 0.25001874566078186 
-0.40432196855545044 0.5 0.23098720610141754 
-0.32321006059646606 0.5 0.17678995430469513 
-0.32321006059646606 0.5 0.17678995430469513 
-0.26901277899742126 0.5 0.095678031444549561 
-0.24998125433921814 0.5 1.5309233784004822e-17 
-0.24998125433921814 0.5 1.5309233784004822e-17 
-0.26901277899742126 0.5 -0.095678031444549561 
-0.32321006059646606 0.5 -0.17678995430469513 
-0.32321006059646606 0.5 -0.17678995430469513 
-0.40432196855545044 0.5 -0.23098720610141754 
-0.5 0.5 -0.25001874566078186 
3 24 0 25 
3 25 0 1 
3 25 1 26 
3 26 1 2 
3 27 3 28 
3 28 3 4 
3 28 4 29 
3 29 4 5 
3 30 6 31 
3 31 6 7 
3 31 7 32 
3 32 7 8 
3 33 9 34 
3 34 9 10 
3 34 10 35 
3 35 10 11 
3 36 12 37 
3 37 12 13 
3 37 13 38 
3 38 13 14 
3 39 15 40 
3 40 15 16 
3 40 16 41 
3 41 16 17 
3 42 18 43 
3 43 18 19 
3 43 19 44 
3 44 19 20 
3 45 21 46 
3 46 21 22 
3 46 22 47 
3 47 22 23 
3 48 24 49 
3 49 24 25 
3 49 25 50 
3 50 25 26 
3 51 27 52 
3 52 27 28 
3 52 28 53 
3 53 28 29 
3 54 30 55 
3 55 30 31 
3 55 31 56 
3 56 31 32 
3 57 33 58 
3 58 33 34 
3 58 34 59 
3 59 34 35 
3 60 36 61 
3 61 36 37 
3 61 37 62 
3 62 37 38 
3 63 39 64 
3 64 39 40 
3 64 40 65 
3 65 40 41 
3 66 42 67 
3 67 42 43 
3 67 43 68 
3 68 43 44 
3 69 45 70 
3 70 45 46 
3 70 46 71 
3 71 46 47 
3 72 48 73 
3 73 48 49 
3 73 49 74 
3 74 49 50 
3 75 51 76 
3 76 51 52 
3 76 52 77 
3 77 52 53 
3 78 54 79 
3 79 54 55 
3 79 55 80 
3 80 55 56 
3 81 57 82 
3 82 57 58 
3 82 58 83 
3 83 58 59 
3 84 60 85 
3 85 60 61 
3 85 61 86 
3 86 61 62 
3 87 63 88 
3 88 63 64 
3 88 64 89 
3 89 64 65 
3 90 66 91 
3 91 66 67 
3 91 67 92 
3 92 67 68 
3 93 69 94 
3 94 69 70 
3 94 70 95 
3 95 70 71 
3 96 72 97 
3 97 72 73 
3 97 73 98 
3 98 73 74 
3 99 75 100 
3 100 75 76 
3 100 76 101 
3 101 76 77 
3 102 78 103 
3 103 78 79 
3 103 79 104 
3 104 79 80 
3 105 81 106 
3 106 81 82 
3 106 82 107 
3 107 82 83 
3 108 84 109 
3 109 84 85 
3 109 85 110 
3 110 85 86 
3 111 87 112 
3 112 87 88 
3 112 88 113 
3 113 88 89 
3 114 90 115 
3 115 90 91 
3 115 91 116 
3 116 91 92 
3 117 93 118 
3 118 93 94 
3 118 94 119 
3 119 94 95 
3 144 120 145 
3 145 120 121 
3 145 121 146 
3 146 121 122 
3 147 123 148 
3 148 123 124 
3 148 124 149 
3 149 124 125 
3 150 126 151 
3 151 126 127 
3 151 127 152 
3 152 127 128 
3 153 129 154 
3 154 129 130 
3 154 130 155 
3 155 130 131 
3 156 132 157 
3 157 132 133 
3 157 133 158 
3 158 133 134 
3 159 135 160 
3 160 135 136 
3 160 136 161 
3 161 136 137 
3 162 138 163 
3 163 138 139 
3 163 139 164 
3 164 139 140 
3 165 141 166 
3 166 141 142 
3 166 142 167 
3 167 142 143 
3 168 144 169 
3 169 144 145 
3 169 145 170 
3 170 145 146 
3 171 147 172 
3 172 147 148 
3 172 148 173 
3 173 148 149 
3 174 150 175 
3 175 150 151 
3 175 151 176 
3 176 151 152 
3 177 153 178 
3 178 153 154 
3 178 154 179 
3 179 154 155 
3 180 156 181 
3 181 156 157 
3 181 157 182 
3 182 157 158 
3 183 159 184 
3 184 159 160 
3 184 160 185 
3 185 160 161 
3 186 162 187 
3 187 162 163 
3 187 163 188 
3 188 163 164 
3 189 165 190 
3 190 165 166 
3 190 166 191 
3 191 166 167 
3 192 168 193 
3 193 168 169 
3 193 169 194 
3 194 169 170 
3 195 171 196 
3 196 171 172 
3 196 172 197 
3 197 172 173 
3 198 174 199 
3 199 174 175 
3 199 175 200 
3 200 175 176 
3 201 177 202 
3 202 177 178 
3 202 178 203 
3 203 178 179 
3 204 180 205 
3 205 180 181 
3 205 181 206 
3 206 181 182 
3 207 183 208 
3 208 183 184 
3 208 184 209 
3 209 184 185 
3 210 186 211 
3 211 186 187 
3 211 187 212 
3 212 187 188 
3 213 189 214 
3 214 189 190 
3 214 190 215 
3 215 190 191 
3 216 192 217 
3 217 192 193 
3 217 193 218 
3 218 193 194 
3 219 195 220 
3 220 195 196 
3 220 196 221 
3 221 196 197 
3 222 198 223 
3 223 198 199 
3 223 199 224 
3 224 199 200 
3 225 201 226 
3 226 201 202 
3 226 202 227 
3 227 202 203 
3 228 204 229 
3 229 204 205 
3 229 205 230 
3 230 205 206 
3 231 207 232 
3 232 207 208 
3 232 208 233 
3 233 208 209 
3 234 210 235 
3 235 210 211 
3 235 211 236 
3 236 211 212 
3 237 213 238 
3 238 213 214 
3 238 214 239 
3 239 214 215 
3 264 240 265 
3 265 240 241 
3 265 241 266 
3 266 241 242 
3 267 243 268 
3 268 243 244 
3 268 244 269 
3 269 244 245 
3 270 246 271 
3 271 246 247 
3 271 247 272 
3 272 247 248 
3 273 249 274 
3 274 249 250 
3 274 250 275 
3 275 250 251 
3 276 252 277 
3 277 252 253 
3 277 253 278 
3 278 253 254 
3 279 255 280 
3 280 255 256 
3 280 256 281 
3 281 256 257 
3 282 258 283 
3 283 258 259 
3 283 259 284 
3 284 259 260 
3 285 261 286 
3 286 261 262 
3 286 262 287 
3 287 262 263 
3 288 264 289 
3 289 264 265 
3 289 265 290 
3 290 265 266 
3 291 267 292 
3 292 267 268 
3 292 268 293 
3 293 268 269 
3 294 270 295 
3 295 270 271 
3 295 271 296 
3 296 271 272 
3 297 273 298 
3 298 273 274 
3 298 274 299 
3 299 274 275 
3 300 276 301 
3 301 276 277 
3 301 277 302 
3 302 277 278 
3 303 279 304 
3 304 279 280 
3 304 280 305 
3 305 280 281 
3 306 282 307 
3 307 282 283 
3 307 283 308 
3 308 283 284 
3 309 285 310 
3 310 285 286 
3 310 286 311 
3 311 286 287 
3 312 288 313 
3 313 288 289 
3 313 289 314 
3 314 289 290 
3 315 291 316 
3 316 291 292 
3 316 292 317 
3 317 292 293 
3 318 294 319 
3 319 294 295 
3 319 295 320 
3 320 295 296 
3 321 297 322 
3 322 297 298 
3 322 298 323 
3 323 298 299 
3 324 300 325 
3 325 300 301 
3 325 301 326 
3 326 301 302 
3 327 303 328 
3 328 303 304 
3 328 304 329 
3 329 304 305 
3 330 306 331 
3 331 306 307 
3 331 307 332 
3 332 307 308 
3 333 309 334 
3 334 309 310 
3 334 310 335 
3 335 310 311 
3 336 312 337 
3 337 312 313 
3 337 313 338 
3 338 313 314 
3 339 315 340 
3 340 315 316 
3 340 316 341 
3 341 316 317 
3 342 318 343 
3 343 318 319 
3 343 319 344 
3 344 319 320 
3 345 321 346 
3 346 321 322 
3 346 322 347 
3 347 322 323 
3 348 324 349 
3 349 324 325 
3 349 325 350 
3 350 325 326 
3 351 327 352 
3 352 327 328 
3 352 328 353 
3 353 328 329 
3 354 330 355 
3 355 330 331 
3 355 331 356 
3 356 331 332 
3 357 333 358 
3 358 333 334 
3 358 334 359 
3 359 334 335 
3 384 360 385 
3 385 360 361 
3 385 361 386 
3 386 361 362 
3 387 363 388 
3 388 363 364 
3 388 364 389 
3 389 364 365 
3 390 366 391 
3 391 366 367 
3 391 367 392 
3 392 367 368 
3 393 369 394 
3 394 369 370 
3 394 370 395 
3 395 370 371 
3 396 372 397 
3 397 372 373 
3 397 373 398 
3 398 373 374 
3 399 375 400 
3 400 375 376 
3 400 376 401 
3 401 376 377 
3 402 378 403 
3 403 378 379 
3 403 379 404 
3 404 379 380 
3 405 381 406 
3 406 381 382 
3 406 382 407 
3 407 382 383 
3 408 384 409 
3 409 384 385 
3 409 385 410 
3 410 385 386 
3 411 387 412 
3 412 387 388 
3 412 388 413 
3 413 388 389 
3 414 390 415 
3 415 390 391 
3 415 391 416 
3 416 391 392 
3 417 393 418 
3 418 393 394 
3 418 394 419 
3 419 394 395 
3 420 396 421 
3 421 396 397 
3 421 397 422 
3 422 397 398 
3 423 399 424 
3 424 399 400 
3 424 400 425 
3 425 400 401 
3 426 402 427 
3 427 402 403 
3 427 403 428 
3 428 403 404 
3 429 405 430 
3 430 405 406 
3 430 406 431 
3 431 406 407 
3 432 408 433 
3 433 408 409 
3 433 409 434 
3 434 409 410 
3 435 411 436 
3 436 411 412 
3 436 412 437 
3 437 412 413 
3 438 414 439 
3 439 414 415 
3 439 415 440 
3 440 415 416 
3 441 417 442 
3 442 417 418 
3 442 418 443 
3 443 418 419 
3 444 420 445 
3 445 420 421 
3 445 421 446 
3 446 421 422 
3 447 423 448 
3 448 423 424 
3 448 424 449 
3 449 424 425 
3 450 426 451 
3 451 426 427 
3 451 427 452 
3 452 427 428 
3 453 429 454 
3 454 429 430 
3 454 430 455 
3 455 430 431 
3 456 432 457 
3 457 432 433 
3 457 433 458 
3 458 433 434 
3 459 435 460 
3 460 435 436 
3 460 436 461 
3 461 436 437 
3 462 438 463 
3 463 438 439 
3 463 439 464 
3 464 439 440 
3 465 441 466 
3 466 441 442 
3 466 442 467 
3 467 442 443 
3 468 444 469 
3 469 444 445 
3 469 445 470 
3 470 445 446 
3 471 447 472 
3 472 447 448 
3 472 448 473 
3 473 448 449 
3 474 450 475 
3 475 450 451 
3 475 451 476 
3 476 451 452 
3 477 453 478 
3 478 453 454 
3 478 454 479 
3 479 454 455 
